<svg xmlns="http://www.w3.org/2000/svg" viewBox="0 0 1440 900">
  <defs>
    <linearGradient id="bg" x1="0%" y1="0%" x2="100%" y2="100%">
      <stop offset="0%" style="stop-color:#0f172a"/>
      <stop offset="50%" style="stop-color:#1e293b"/>
      <stop offset="100%" style="stop-color:#0f172a"/>
    </linearGradient>
    <linearGradient id="accent" x1="0%" y1="0%" x2="100%" y2="0%">
      <stop offset="0%" style="stop-color:#06b6d4;stop-opacity:0.3"/>
      <stop offset="100%" style="stop-color:#14b8a6;stop-opacity:0.3"/>
    </linearGradient>
  </defs>
  <rect width="1440" height="900" fill="url(#bg)"/>
  <rect x="60" y="60" width="300" height="40" rx="8" fill="url(#accent)"/>
  <rect x="60" y="130" width="640" height="400" rx="12" fill="#1e293b" stroke="#334155" stroke-width="1" stroke-dasharray="8,4"/>
  <text x="280" y="320" font-family="system-ui" font-size="20" fill="#64748b">Drop CSV or XLSX</text>
  <text x="310" y="360" font-family="system-ui" font-size="14" fill="#475569">or click to browse</text>
  <rect x="740" y="130" width="640" height="400" rx="12" fill="#1e293b" stroke="#334155" stroke-width="1"/>
  <rect x="780" y="170" width="200" height="30" rx="4" fill="#334155"/>
  <rect x="780" y="220" width="560" height="40" rx="8" fill="#0f172a"/>
  <rect x="780" y="280" width="560" height="40" rx="8" fill="#0f172a"/>
  <rect x="780" y="340" width="560" height="40" rx="8" fill="#0f172a"/>
  <rect x="780" y="400" width="560" height="40" rx="8" fill="#0f172a"/>
  <rect x="780" y="460" width="180" height="40" rx="8" fill="#06b6d4" opacity="0.3"/>
  <rect x="60" y="570" width="1320" height="200" rx="12" fill="#1e293b" stroke="#334155" stroke-width="1"/>
  <rect x="100" y="610" width="1240" height="30" rx="4" fill="#334155"/>
  <rect x="100" y="660" width="1240" height="24" rx="4" fill="#0f172a"/>
  <rect x="100" y="700" width="1240" height="24" rx="4" fill="#0f172a"/>
  <text x="720" y="840" font-family="system-ui" font-size="14" fill="#64748b">Dillon's Data Cleaner</text>
</svg>