<svg xmlns="http://www.w3.org/2000/svg" viewBox="0 0 1440 900">
  <defs>
    <linearGradient id="bg" x1="0%" y1="0%" x2="100%" y2="100%">
      <stop offset="0%" style="stop-color:#0f172a"/>
      <stop offset="50%" style="stop-color:#1e293b"/>
      <stop offset="100%" style="stop-color:#0f172a"/>
    </linearGradient>
    <linearGradient id="accent" x1="0%" y1="0%" x2="100%" y2="0%">
      <stop offset="0%" style="stop-color:#f97316;stop-opacity:0.3"/>
      <stop offset="100%" style="stop-color:#ef4444;stop-opacity:0.3"/>
    </linearGradient>
  </defs>
  <rect width="1440" height="900" fill="url(#bg)"/>
  <rect x="60" y="60" width="280" height="40" rx="8" fill="url(#accent)"/>
  <rect x="60" y="130" width="260" height="120" rx="12" fill="#1e293b" stroke="#334155" stroke-width="1"/>
  <rect x="350" y="130" width="260" height="120" rx="12" fill="#1e293b" stroke="#334155" stroke-width="1"/>
  <rect x="640" y="130" width="260" height="120" rx="12" fill="#1e293b" stroke="#334155" stroke-width="1"/>
  <rect x="930" y="130" width="260" height="120" rx="12" fill="#1e293b" stroke="#334155" stroke-width="1"/>
  <rect x="1220" y="130" width="160" height="120" rx="12" fill="#1e293b" stroke="#334155" stroke-width="1"/>
  <rect x="60" y="290" width="1320" height="360" rx="12" fill="#1e293b" stroke="#334155" stroke-width="1"/>
  <rect x="100" y="330" width="1240" height="40" rx="4" fill="#334155"/>
  <rect x="100" y="390" width="1240" height="36" rx="4" fill="#0f172a"/>
  <rect x="100" y="440" width="1240" height="36" rx="4" fill="#0f172a"/>
  <rect x="100" y="490" width="1240" height="36" rx="4" fill="#0f172a"/>
  <rect x="100" y="540" width="1240" height="36" rx="4" fill="#0f172a"/>
  <rect x="100" y="590" width="1240" height="36" rx="4" fill="#0f172a"/>
  <text x="130" y="180" font-family="system-ui" font-size="32" font-weight="bold" fill="#f97316">185</text>
  <text x="420" y="180" font-family="system-ui" font-size="32" font-weight="bold" fill="#10b981">225</text>
  <text x="710" y="180" font-family="system-ui" font-size="32" font-weight="bold" fill="#3b82f6">135</text>
  <text x="720" y="840" font-family="system-ui" font-size="14" fill="#64748b">Gym Data Tracker</text>
</svg>