<svg xmlns="http://www.w3.org/2000/svg" viewBox="0 0 1440 900">
  <defs>
    <linearGradient id="bg" x1="0%" y1="0%" x2="100%" y2="100%">
      <stop offset="0%" style="stop-color:#0f172a"/>
      <stop offset="50%" style="stop-color:#1e293b"/>
      <stop offset="100%" style="stop-color:#0f172a"/>
    </linearGradient>
    <linearGradient id="accent" x1="0%" y1="0%" x2="100%" y2="0%">
      <stop offset="0%" style="stop-color:#a855f7;stop-opacity:0.3"/>
      <stop offset="100%" style="stop-color:#ec4899;stop-opacity:0.3"/>
    </linearGradient>
  </defs>
  <rect width="1440" height="900" fill="url(#bg)"/>
  <rect x="420" y="100" width="600" height="700" rx="24" fill="#1e293b" stroke="#334155" stroke-width="2"/>
  <rect x="470" y="160" width="500" height="60" rx="8" fill="#0f172a"/>
  <rect x="490" y="180" width="200" height="20" rx="4" fill="#334155"/>
  <rect x="470" y="260" width="500" height="200" rx="12" fill="url(#accent)"/>
  <polygon points="720,320 680,380 760,380" fill="#a855f7" opacity="0.8"/>
  <rect x="470" y="500" width="240" height="80" rx="12" fill="#0f172a" stroke="#334155" stroke-width="1"/>
  <rect x="730" y="500" width="240" height="80" rx="12" fill="#0f172a" stroke="#334155" stroke-width="1"/>
  <text x="540" y="550" font-family="system-ui" font-size="18" fill="#94a3b8">Page Up</text>
  <text x="790" y="550" font-family="system-ui" font-size="18" fill="#94a3b8">Page Down</text>
  <rect x="470" y="620" width="500" height="120" rx="12" fill="#0f172a"/>
  <rect x="490" y="650" width="400" height="12" rx="3" fill="#334155"/>
  <rect x="490" y="680" width="350" height="12" rx="3" fill="#334155"/>
  <rect x="490" y="710" width="280" height="12" rx="3" fill="#334155"/>
  <text x="720" y="840" font-family="system-ui" font-size="14" fill="#64748b">KOReader Remote</text>
</svg>