<svg xmlns="http://www.w3.org/2000/svg" viewBox="0 0 1440 900">
  <defs>
    <linearGradient id="bg" x1="0%" y1="0%" x2="100%" y2="100%">
      <stop offset="0%" style="stop-color:#0f172a"/>
      <stop offset="50%" style="stop-color:#1e293b"/>
      <stop offset="100%" style="stop-color:#0f172a"/>
    </linearGradient>
    <linearGradient id="accent" x1="0%" y1="0%" x2="100%" y2="0%">
      <stop offset="0%" style="stop-color:#10b981;stop-opacity:0.3"/>
      <stop offset="100%" style="stop-color:#3b82f6;stop-opacity:0.3"/>
    </linearGradient>
  </defs>
  <rect width="1440" height="900" fill="url(#bg)"/>
  <rect x="60" y="60" width="300" height="40" rx="8" fill="url(#accent)"/>
  <rect x="60" y="130" width="320" height="140" rx="12" fill="#1e293b" stroke="#334155" stroke-width="1"/>
  <rect x="410" y="130" width="320" height="140" rx="12" fill="#1e293b" stroke="#334155" stroke-width="1"/>
  <rect x="760" y="130" width="320" height="140" rx="12" fill="#1e293b" stroke="#334155" stroke-width="1"/>
  <rect x="1110" y="130" width="270" height="140" rx="12" fill="#1e293b" stroke="#334155" stroke-width="1"/>
  <rect x="60" y="310" width="680" height="340" rx="12" fill="#1e293b" stroke="#334155" stroke-width="1"/>
  <rect x="780" y="310" width="600" height="340" rx="12" fill="#1e293b" stroke="#334155" stroke-width="1"/>
  <rect x="100" y="380" width="40" height="200" rx="4" fill="#10b981" opacity="0.6"/>
  <rect x="170" y="420" width="40" height="160" rx="4" fill="#3b82f6" opacity="0.6"/>
  <rect x="240" y="350" width="40" height="230" rx="4" fill="#10b981" opacity="0.6"/>
  <rect x="310" y="400" width="40" height="180" rx="4" fill="#3b82f6" opacity="0.6"/>
  <rect x="380" y="440" width="40" height="140" rx="4" fill="#10b981" opacity="0.6"/>
  <rect x="450" y="360" width="40" height="220" rx="4" fill="#3b82f6" opacity="0.6"/>
  <text x="720" y="840" font-family="system-ui" font-size="14" fill="#64748b">Materials Dashboard</text>
</svg>